<mxfile host="Electron" modified="2024-05-16T14:18:00.451Z" agent="Mozilla/5.0 (Windows NT 10.0; Win64; x64) AppleWebKit/537.36 (KHTML, like Gecko) draw.io/24.2.5 Chrome/120.0.6099.109 Electron/28.1.0 Safari/537.36" etag="Bf65R4usPi1IsGdCJzgL" version="24.2.5" type="device">
  <diagram name="Page-1" id="2YBvvXClWsGukQMizWep">
    <mxGraphModel dx="865" dy="518" grid="1" gridSize="10" guides="1" tooltips="1" connect="1" arrows="1" fold="1" page="1" pageScale="1" pageWidth="10000" pageHeight="10000" math="0" shadow="0">
      <root>
        <mxCell id="0" />
        <mxCell id="1" parent="0" />
        <mxCell id="aM9ryv3xv72pqoxQDRHE-5" value="&lt;font style=&quot;font-size: 10px;&quot;&gt;LoginPageController&lt;/font&gt;" style="shape=umlLifeline;perimeter=lifelinePerimeter;whiteSpace=wrap;html=1;container=0;dropTarget=0;collapsible=0;recursiveResize=0;outlineConnect=0;portConstraint=eastwest;newEdgeStyle={&quot;edgeStyle&quot;:&quot;elbowEdgeStyle&quot;,&quot;elbow&quot;:&quot;vertical&quot;,&quot;curved&quot;:0,&quot;rounded&quot;:0};" parent="1" vertex="1">
          <mxGeometry x="280" y="115" width="100" height="640" as="geometry" />
        </mxCell>
        <mxCell id="aM9ryv3xv72pqoxQDRHE-6" value="" style="html=1;points=[];perimeter=orthogonalPerimeter;outlineConnect=0;targetShapes=umlLifeline;portConstraint=eastwest;newEdgeStyle={&quot;edgeStyle&quot;:&quot;elbowEdgeStyle&quot;,&quot;elbow&quot;:&quot;vertical&quot;,&quot;curved&quot;:0,&quot;rounded&quot;:0};" parent="aM9ryv3xv72pqoxQDRHE-5" vertex="1">
          <mxGeometry x="45" y="80" width="10" height="300" as="geometry" />
        </mxCell>
        <mxCell id="aM9ryv3xv72pqoxQDRHE-7" value="click login" style="html=1;verticalAlign=bottom;endArrow=block;edgeStyle=elbowEdgeStyle;elbow=vertical;curved=0;rounded=0;" parent="1" target="aM9ryv3xv72pqoxQDRHE-6" edge="1">
          <mxGeometry relative="1" as="geometry">
            <mxPoint x="155" y="200" as="sourcePoint" />
            <Array as="points">
              <mxPoint x="240" y="200" />
            </Array>
            <mxPoint x="290" y="200" as="targetPoint" />
          </mxGeometry>
        </mxCell>
        <mxCell id="aM9ryv3xv72pqoxQDRHE-9" value="return login page" style="html=1;verticalAlign=bottom;endArrow=block;edgeStyle=elbowEdgeStyle;elbow=vertical;curved=0;rounded=0;" parent="1" edge="1">
          <mxGeometry relative="1" as="geometry">
            <mxPoint x="325" y="260" as="sourcePoint" />
            <Array as="points">
              <mxPoint x="250" y="260" />
            </Array>
            <mxPoint x="160" y="260" as="targetPoint" />
          </mxGeometry>
        </mxCell>
        <mxCell id="aM9ryv3xv72pqoxQDRHE-10" value="fill email and password" style="html=1;verticalAlign=bottom;endArrow=open;endSize=8;edgeStyle=elbowEdgeStyle;elbow=vertical;curved=0;rounded=0;" parent="1" target="aM9ryv3xv72pqoxQDRHE-6" edge="1">
          <mxGeometry relative="1" as="geometry">
            <mxPoint x="235" y="315" as="targetPoint" />
            <Array as="points">
              <mxPoint x="240" y="310" />
            </Array>
            <mxPoint x="160" y="310" as="sourcePoint" />
          </mxGeometry>
        </mxCell>
        <mxCell id="ysUUQ0esG7nX-n5Ht758-2" value="user" style="shape=umlActor;verticalLabelPosition=bottom;verticalAlign=top;html=1;outlineConnect=0;" vertex="1" parent="1">
          <mxGeometry x="140" y="110" width="25" height="50" as="geometry" />
        </mxCell>
        <mxCell id="ysUUQ0esG7nX-n5Ht758-6" value="" style="endArrow=none;dashed=1;html=1;rounded=0;" edge="1" parent="1" source="ysUUQ0esG7nX-n5Ht758-31" target="ysUUQ0esG7nX-n5Ht758-2">
          <mxGeometry width="50" height="50" relative="1" as="geometry">
            <mxPoint x="153" y="720" as="sourcePoint" />
            <mxPoint x="330" y="250" as="targetPoint" />
          </mxGeometry>
        </mxCell>
        <mxCell id="ysUUQ0esG7nX-n5Ht758-10" value="" style="endArrow=classic;html=1;rounded=0;" edge="1" parent="1">
          <mxGeometry width="50" height="50" relative="1" as="geometry">
            <mxPoint x="340" y="210" as="sourcePoint" />
            <mxPoint x="340" y="250" as="targetPoint" />
            <Array as="points">
              <mxPoint x="390" y="210" />
              <mxPoint x="390" y="250" />
            </Array>
          </mxGeometry>
        </mxCell>
        <mxCell id="ysUUQ0esG7nX-n5Ht758-14" value="setup login form" style="edgeLabel;html=1;align=center;verticalAlign=middle;resizable=0;points=[];" vertex="1" connectable="0" parent="ysUUQ0esG7nX-n5Ht758-10">
          <mxGeometry x="-0.1388" relative="1" as="geometry">
            <mxPoint y="10" as="offset" />
          </mxGeometry>
        </mxCell>
        <mxCell id="ysUUQ0esG7nX-n5Ht758-19" value="" style="rounded=0;whiteSpace=wrap;html=1;fillColor=none;" vertex="1" parent="1">
          <mxGeometry x="150" y="370" width="530" height="150" as="geometry" />
        </mxCell>
        <mxCell id="ysUUQ0esG7nX-n5Ht758-11" value="&lt;font style=&quot;font-size: 10px;&quot;&gt;LoginController&lt;/font&gt;" style="shape=umlLifeline;perimeter=lifelinePerimeter;whiteSpace=wrap;html=1;container=0;dropTarget=0;collapsible=0;recursiveResize=0;outlineConnect=0;portConstraint=eastwest;newEdgeStyle={&quot;edgeStyle&quot;:&quot;elbowEdgeStyle&quot;,&quot;elbow&quot;:&quot;vertical&quot;,&quot;curved&quot;:0,&quot;rounded&quot;:0};" vertex="1" parent="1">
          <mxGeometry x="460" y="120" width="100" height="630" as="geometry" />
        </mxCell>
        <mxCell id="ysUUQ0esG7nX-n5Ht758-12" value="" style="html=1;points=[];perimeter=orthogonalPerimeter;outlineConnect=0;targetShapes=umlLifeline;portConstraint=eastwest;newEdgeStyle={&quot;edgeStyle&quot;:&quot;elbowEdgeStyle&quot;,&quot;elbow&quot;:&quot;vertical&quot;,&quot;curved&quot;:0,&quot;rounded&quot;:0};" vertex="1" parent="ysUUQ0esG7nX-n5Ht758-11">
          <mxGeometry x="45" y="210" width="10" height="150" as="geometry" />
        </mxCell>
        <mxCell id="ysUUQ0esG7nX-n5Ht758-15" value="check user data" style="html=1;verticalAlign=bottom;endArrow=block;edgeStyle=elbowEdgeStyle;elbow=vertical;curved=0;rounded=0;" edge="1" parent="1">
          <mxGeometry x="0.0028" relative="1" as="geometry">
            <mxPoint x="340" y="330" as="sourcePoint" />
            <Array as="points">
              <mxPoint x="425" y="330" />
            </Array>
            <mxPoint x="510" y="330" as="targetPoint" />
            <mxPoint as="offset" />
          </mxGeometry>
        </mxCell>
        <mxCell id="ysUUQ0esG7nX-n5Ht758-16" value="&lt;span style=&quot;font-size: 10px;&quot;&gt;Database&lt;/span&gt;" style="shape=umlLifeline;perimeter=lifelinePerimeter;whiteSpace=wrap;html=1;container=0;dropTarget=0;collapsible=0;recursiveResize=0;outlineConnect=0;portConstraint=eastwest;newEdgeStyle={&quot;edgeStyle&quot;:&quot;elbowEdgeStyle&quot;,&quot;elbow&quot;:&quot;vertical&quot;,&quot;curved&quot;:0,&quot;rounded&quot;:0};" vertex="1" parent="1">
          <mxGeometry x="630" y="120" width="100" height="620" as="geometry" />
        </mxCell>
        <mxCell id="ysUUQ0esG7nX-n5Ht758-17" value="" style="html=1;points=[];perimeter=orthogonalPerimeter;outlineConnect=0;targetShapes=umlLifeline;portConstraint=eastwest;newEdgeStyle={&quot;edgeStyle&quot;:&quot;elbowEdgeStyle&quot;,&quot;elbow&quot;:&quot;vertical&quot;,&quot;curved&quot;:0,&quot;rounded&quot;:0};" vertex="1" parent="ysUUQ0esG7nX-n5Ht758-16">
          <mxGeometry x="45" y="220" width="10" height="120" as="geometry" />
        </mxCell>
        <mxCell id="ysUUQ0esG7nX-n5Ht758-18" value="search for user&amp;nbsp;" style="html=1;verticalAlign=bottom;endArrow=block;edgeStyle=elbowEdgeStyle;elbow=vertical;curved=0;rounded=0;" edge="1" parent="1">
          <mxGeometry x="0.0028" relative="1" as="geometry">
            <mxPoint x="510" y="340" as="sourcePoint" />
            <Array as="points">
              <mxPoint x="595" y="340" />
            </Array>
            <mxPoint x="680" y="340" as="targetPoint" />
            <mxPoint as="offset" />
          </mxGeometry>
        </mxCell>
        <mxCell id="ysUUQ0esG7nX-n5Ht758-20" value="successful data" style="html=1;verticalAlign=bottom;endArrow=block;edgeStyle=elbowEdgeStyle;elbow=vertical;curved=0;rounded=0;" edge="1" parent="1">
          <mxGeometry relative="1" as="geometry">
            <mxPoint x="675" y="400" as="sourcePoint" />
            <Array as="points">
              <mxPoint x="600" y="400" />
            </Array>
            <mxPoint x="510" y="400" as="targetPoint" />
          </mxGeometry>
        </mxCell>
        <mxCell id="ysUUQ0esG7nX-n5Ht758-21" value="" style="endArrow=none;dashed=1;html=1;dashPattern=1 3;strokeWidth=2;rounded=0;exitX=-0.006;exitY=0.597;exitDx=0;exitDy=0;exitPerimeter=0;" edge="1" parent="1">
          <mxGeometry width="50" height="50" relative="1" as="geometry">
            <mxPoint x="148.66000000000005" y="444.5799999999999" as="sourcePoint" />
            <mxPoint x="681.3400000000003" y="444.5799999999999" as="targetPoint" />
          </mxGeometry>
        </mxCell>
        <mxCell id="ysUUQ0esG7nX-n5Ht758-22" value="logined successfully" style="html=1;verticalAlign=bottom;endArrow=block;edgeStyle=elbowEdgeStyle;elbow=vertical;curved=0;rounded=0;" edge="1" parent="1">
          <mxGeometry relative="1" as="geometry">
            <mxPoint x="505" y="420" as="sourcePoint" />
            <Array as="points">
              <mxPoint x="430" y="420" />
            </Array>
            <mxPoint x="340" y="420" as="targetPoint" />
          </mxGeometry>
        </mxCell>
        <mxCell id="ysUUQ0esG7nX-n5Ht758-23" value="redirect to Homepage&amp;nbsp;" style="html=1;verticalAlign=bottom;endArrow=block;edgeStyle=elbowEdgeStyle;elbow=vertical;curved=0;rounded=0;" edge="1" parent="1">
          <mxGeometry relative="1" as="geometry">
            <mxPoint x="325" y="434.58" as="sourcePoint" />
            <Array as="points">
              <mxPoint x="250" y="434.58" />
            </Array>
            <mxPoint x="160" y="434.58" as="targetPoint" />
          </mxGeometry>
        </mxCell>
        <mxCell id="ysUUQ0esG7nX-n5Ht758-25" value="data not found" style="html=1;verticalAlign=bottom;endArrow=block;edgeStyle=elbowEdgeStyle;elbow=vertical;curved=0;rounded=0;" edge="1" parent="1">
          <mxGeometry relative="1" as="geometry">
            <mxPoint x="680" y="460" as="sourcePoint" />
            <Array as="points">
              <mxPoint x="605" y="460" />
            </Array>
            <mxPoint x="515" y="460" as="targetPoint" />
          </mxGeometry>
        </mxCell>
        <mxCell id="ysUUQ0esG7nX-n5Ht758-26" value="no user found" style="html=1;verticalAlign=bottom;endArrow=block;edgeStyle=elbowEdgeStyle;elbow=vertical;curved=0;rounded=0;" edge="1" parent="1">
          <mxGeometry relative="1" as="geometry">
            <mxPoint x="505" y="480" as="sourcePoint" />
            <Array as="points">
              <mxPoint x="430" y="480" />
            </Array>
            <mxPoint x="340" y="480" as="targetPoint" />
          </mxGeometry>
        </mxCell>
        <mxCell id="ysUUQ0esG7nX-n5Ht758-27" value="return message wrong data" style="html=1;verticalAlign=bottom;endArrow=block;edgeStyle=elbowEdgeStyle;elbow=vertical;curved=0;rounded=0;" edge="1" parent="1">
          <mxGeometry relative="1" as="geometry">
            <mxPoint x="330" y="500" as="sourcePoint" />
            <Array as="points">
              <mxPoint x="255" y="500" />
            </Array>
            <mxPoint x="165" y="500" as="targetPoint" />
          </mxGeometry>
        </mxCell>
        <mxCell id="ysUUQ0esG7nX-n5Ht758-28" value="" style="shape=loopLimit;whiteSpace=wrap;html=1;rotation=-180;" vertex="1" parent="1">
          <mxGeometry x="150" y="370" width="60" height="37.47" as="geometry" />
        </mxCell>
        <mxCell id="ysUUQ0esG7nX-n5Ht758-31" value="" style="html=1;points=[];perimeter=orthogonalPerimeter;outlineConnect=0;targetShapes=umlLifeline;portConstraint=eastwest;newEdgeStyle={&quot;edgeStyle&quot;:&quot;elbowEdgeStyle&quot;,&quot;elbow&quot;:&quot;vertical&quot;,&quot;curved&quot;:0,&quot;rounded&quot;:0};" vertex="1" parent="1">
          <mxGeometry x="147.5" y="195" width="10" height="300" as="geometry" />
        </mxCell>
        <mxCell id="ysUUQ0esG7nX-n5Ht758-30" value="&lt;font style=&quot;font-size: 9px;&quot;&gt;&amp;nbsp; Alternative&lt;/font&gt;" style="text;strokeColor=none;fillColor=none;html=1;fontSize=12;fontStyle=1;verticalAlign=middle;align=center;fontFamily=Helvetica;fontColor=default;" vertex="1" parent="1">
          <mxGeometry x="130" y="360" width="100" height="40" as="geometry" />
        </mxCell>
        <mxCell id="ysUUQ0esG7nX-n5Ht758-32" value="" style="endArrow=none;dashed=1;html=1;rounded=0;" edge="1" parent="1" target="ysUUQ0esG7nX-n5Ht758-31">
          <mxGeometry width="50" height="50" relative="1" as="geometry">
            <mxPoint x="153" y="720" as="sourcePoint" />
            <mxPoint x="153" y="160" as="targetPoint" />
          </mxGeometry>
        </mxCell>
        <mxCell id="ysUUQ0esG7nX-n5Ht758-33" value="&lt;font style=&quot;font-size: 22px;&quot;&gt;login sequence diagram&lt;/font&gt;" style="text;strokeColor=none;fillColor=none;html=1;fontSize=12;fontStyle=1;verticalAlign=middle;align=center;fontFamily=Helvetica;fontColor=default;" vertex="1" parent="1">
          <mxGeometry x="350" y="60" width="160" height="40" as="geometry" />
        </mxCell>
        <mxCell id="ysUUQ0esG7nX-n5Ht758-90" value="&lt;font style=&quot;font-size: 10px;&quot;&gt;loginPageController&lt;/font&gt;" style="shape=umlLifeline;perimeter=lifelinePerimeter;whiteSpace=wrap;html=1;container=0;dropTarget=0;collapsible=0;recursiveResize=0;outlineConnect=0;portConstraint=eastwest;newEdgeStyle={&quot;edgeStyle&quot;:&quot;elbowEdgeStyle&quot;,&quot;elbow&quot;:&quot;vertical&quot;,&quot;curved&quot;:0,&quot;rounded&quot;:0};" vertex="1" parent="1">
          <mxGeometry x="920" y="110" width="100" height="640" as="geometry" />
        </mxCell>
        <mxCell id="ysUUQ0esG7nX-n5Ht758-91" value="" style="html=1;points=[];perimeter=orthogonalPerimeter;outlineConnect=0;targetShapes=umlLifeline;portConstraint=eastwest;newEdgeStyle={&quot;edgeStyle&quot;:&quot;elbowEdgeStyle&quot;,&quot;elbow&quot;:&quot;vertical&quot;,&quot;curved&quot;:0,&quot;rounded&quot;:0};" vertex="1" parent="ysUUQ0esG7nX-n5Ht758-90">
          <mxGeometry x="45" y="80" width="10" height="300" as="geometry" />
        </mxCell>
        <mxCell id="ysUUQ0esG7nX-n5Ht758-92" value="click signup" style="html=1;verticalAlign=bottom;endArrow=block;edgeStyle=elbowEdgeStyle;elbow=vertical;curved=0;rounded=0;" edge="1" target="ysUUQ0esG7nX-n5Ht758-91" parent="1">
          <mxGeometry relative="1" as="geometry">
            <mxPoint x="795" y="195" as="sourcePoint" />
            <Array as="points">
              <mxPoint x="880" y="195" />
            </Array>
            <mxPoint x="930" y="195" as="targetPoint" />
          </mxGeometry>
        </mxCell>
        <mxCell id="ysUUQ0esG7nX-n5Ht758-93" value="return signup page" style="html=1;verticalAlign=bottom;endArrow=block;edgeStyle=elbowEdgeStyle;elbow=vertical;curved=0;rounded=0;" edge="1" parent="1">
          <mxGeometry relative="1" as="geometry">
            <mxPoint x="965" y="255" as="sourcePoint" />
            <Array as="points">
              <mxPoint x="890" y="255" />
            </Array>
            <mxPoint x="800" y="255" as="targetPoint" />
          </mxGeometry>
        </mxCell>
        <mxCell id="ysUUQ0esG7nX-n5Ht758-94" value="fill data" style="html=1;verticalAlign=bottom;endArrow=open;endSize=8;edgeStyle=elbowEdgeStyle;elbow=vertical;curved=0;rounded=0;" edge="1" target="ysUUQ0esG7nX-n5Ht758-91" parent="1">
          <mxGeometry relative="1" as="geometry">
            <mxPoint x="875" y="310" as="targetPoint" />
            <Array as="points">
              <mxPoint x="880" y="305" />
            </Array>
            <mxPoint x="800" y="305" as="sourcePoint" />
          </mxGeometry>
        </mxCell>
        <mxCell id="ysUUQ0esG7nX-n5Ht758-95" value="user" style="shape=umlActor;verticalLabelPosition=bottom;verticalAlign=top;html=1;outlineConnect=0;" vertex="1" parent="1">
          <mxGeometry x="780" y="105" width="25" height="50" as="geometry" />
        </mxCell>
        <mxCell id="ysUUQ0esG7nX-n5Ht758-96" value="" style="endArrow=none;dashed=1;html=1;rounded=0;" edge="1" source="ysUUQ0esG7nX-n5Ht758-114" target="ysUUQ0esG7nX-n5Ht758-95" parent="1">
          <mxGeometry width="50" height="50" relative="1" as="geometry">
            <mxPoint x="793" y="715" as="sourcePoint" />
            <mxPoint x="970" y="245" as="targetPoint" />
          </mxGeometry>
        </mxCell>
        <mxCell id="ysUUQ0esG7nX-n5Ht758-97" value="" style="endArrow=classic;html=1;rounded=0;" edge="1" parent="1">
          <mxGeometry width="50" height="50" relative="1" as="geometry">
            <mxPoint x="980" y="205" as="sourcePoint" />
            <mxPoint x="980" y="245" as="targetPoint" />
            <Array as="points">
              <mxPoint x="1030" y="205" />
              <mxPoint x="1030" y="245" />
            </Array>
          </mxGeometry>
        </mxCell>
        <mxCell id="ysUUQ0esG7nX-n5Ht758-98" value="setup signup form" style="edgeLabel;html=1;align=center;verticalAlign=middle;resizable=0;points=[];" vertex="1" connectable="0" parent="ysUUQ0esG7nX-n5Ht758-97">
          <mxGeometry x="-0.1388" relative="1" as="geometry">
            <mxPoint y="10" as="offset" />
          </mxGeometry>
        </mxCell>
        <mxCell id="ysUUQ0esG7nX-n5Ht758-99" value="" style="rounded=0;whiteSpace=wrap;html=1;fillColor=none;" vertex="1" parent="1">
          <mxGeometry x="790" y="365" width="530" height="150" as="geometry" />
        </mxCell>
        <mxCell id="ysUUQ0esG7nX-n5Ht758-100" value="&lt;font style=&quot;font-size: 10px;&quot;&gt;LoginController&lt;/font&gt;" style="shape=umlLifeline;perimeter=lifelinePerimeter;whiteSpace=wrap;html=1;container=0;dropTarget=0;collapsible=0;recursiveResize=0;outlineConnect=0;portConstraint=eastwest;newEdgeStyle={&quot;edgeStyle&quot;:&quot;elbowEdgeStyle&quot;,&quot;elbow&quot;:&quot;vertical&quot;,&quot;curved&quot;:0,&quot;rounded&quot;:0};" vertex="1" parent="1">
          <mxGeometry x="1100" y="115" width="100" height="630" as="geometry" />
        </mxCell>
        <mxCell id="ysUUQ0esG7nX-n5Ht758-101" value="" style="html=1;points=[];perimeter=orthogonalPerimeter;outlineConnect=0;targetShapes=umlLifeline;portConstraint=eastwest;newEdgeStyle={&quot;edgeStyle&quot;:&quot;elbowEdgeStyle&quot;,&quot;elbow&quot;:&quot;vertical&quot;,&quot;curved&quot;:0,&quot;rounded&quot;:0};" vertex="1" parent="ysUUQ0esG7nX-n5Ht758-100">
          <mxGeometry x="45" y="210" width="10" height="150" as="geometry" />
        </mxCell>
        <mxCell id="ysUUQ0esG7nX-n5Ht758-102" value="check user data" style="html=1;verticalAlign=bottom;endArrow=block;edgeStyle=elbowEdgeStyle;elbow=vertical;curved=0;rounded=0;" edge="1" parent="1">
          <mxGeometry x="0.0028" relative="1" as="geometry">
            <mxPoint x="980" y="355" as="sourcePoint" />
            <Array as="points">
              <mxPoint x="1065" y="355" />
            </Array>
            <mxPoint x="1150" y="355" as="targetPoint" />
            <mxPoint as="offset" />
          </mxGeometry>
        </mxCell>
        <mxCell id="ysUUQ0esG7nX-n5Ht758-103" value="&lt;span style=&quot;font-size: 10px;&quot;&gt;Database&lt;/span&gt;" style="shape=umlLifeline;perimeter=lifelinePerimeter;whiteSpace=wrap;html=1;container=0;dropTarget=0;collapsible=0;recursiveResize=0;outlineConnect=0;portConstraint=eastwest;newEdgeStyle={&quot;edgeStyle&quot;:&quot;elbowEdgeStyle&quot;,&quot;elbow&quot;:&quot;vertical&quot;,&quot;curved&quot;:0,&quot;rounded&quot;:0};" vertex="1" parent="1">
          <mxGeometry x="1270" y="115" width="100" height="620" as="geometry" />
        </mxCell>
        <mxCell id="ysUUQ0esG7nX-n5Ht758-104" value="" style="html=1;points=[];perimeter=orthogonalPerimeter;outlineConnect=0;targetShapes=umlLifeline;portConstraint=eastwest;newEdgeStyle={&quot;edgeStyle&quot;:&quot;elbowEdgeStyle&quot;,&quot;elbow&quot;:&quot;vertical&quot;,&quot;curved&quot;:0,&quot;rounded&quot;:0};" vertex="1" parent="ysUUQ0esG7nX-n5Ht758-103">
          <mxGeometry x="45" y="220" width="10" height="120" as="geometry" />
        </mxCell>
        <mxCell id="ysUUQ0esG7nX-n5Ht758-105" value="add user data" style="html=1;verticalAlign=bottom;endArrow=block;edgeStyle=elbowEdgeStyle;elbow=vertical;curved=0;rounded=0;" edge="1" parent="1">
          <mxGeometry x="0.0028" relative="1" as="geometry">
            <mxPoint x="1160" y="360" as="sourcePoint" />
            <Array as="points">
              <mxPoint x="1245" y="360" />
            </Array>
            <mxPoint x="1320" y="360" as="targetPoint" />
            <mxPoint as="offset" />
          </mxGeometry>
        </mxCell>
        <mxCell id="ysUUQ0esG7nX-n5Ht758-106" value="successful add" style="html=1;verticalAlign=bottom;endArrow=block;edgeStyle=elbowEdgeStyle;elbow=vertical;curved=0;rounded=0;" edge="1" parent="1">
          <mxGeometry relative="1" as="geometry">
            <mxPoint x="1315" y="395" as="sourcePoint" />
            <Array as="points">
              <mxPoint x="1240" y="395" />
            </Array>
            <mxPoint x="1150" y="395" as="targetPoint" />
          </mxGeometry>
        </mxCell>
        <mxCell id="ysUUQ0esG7nX-n5Ht758-107" value="" style="endArrow=none;dashed=1;html=1;dashPattern=1 3;strokeWidth=2;rounded=0;exitX=-0.006;exitY=0.597;exitDx=0;exitDy=0;exitPerimeter=0;" edge="1" parent="1">
          <mxGeometry width="50" height="50" relative="1" as="geometry">
            <mxPoint x="788.6600000000001" y="439.5799999999999" as="sourcePoint" />
            <mxPoint x="1321.3400000000001" y="439.5799999999999" as="targetPoint" />
          </mxGeometry>
        </mxCell>
        <mxCell id="ysUUQ0esG7nX-n5Ht758-108" value="logined successfully" style="html=1;verticalAlign=bottom;endArrow=block;edgeStyle=elbowEdgeStyle;elbow=vertical;curved=0;rounded=0;" edge="1" parent="1">
          <mxGeometry relative="1" as="geometry">
            <mxPoint x="1145" y="415" as="sourcePoint" />
            <Array as="points">
              <mxPoint x="1070" y="415" />
            </Array>
            <mxPoint x="980" y="415" as="targetPoint" />
          </mxGeometry>
        </mxCell>
        <mxCell id="ysUUQ0esG7nX-n5Ht758-109" value="redirect to Homepage&amp;nbsp;" style="html=1;verticalAlign=bottom;endArrow=block;edgeStyle=elbowEdgeStyle;elbow=vertical;curved=0;rounded=0;" edge="1" parent="1">
          <mxGeometry relative="1" as="geometry">
            <mxPoint x="965" y="429.58" as="sourcePoint" />
            <Array as="points">
              <mxPoint x="890" y="429.58" />
            </Array>
            <mxPoint x="800" y="429.58" as="targetPoint" />
          </mxGeometry>
        </mxCell>
        <mxCell id="ysUUQ0esG7nX-n5Ht758-110" value="data already exists" style="html=1;verticalAlign=bottom;endArrow=block;edgeStyle=elbowEdgeStyle;elbow=vertical;curved=0;rounded=0;" edge="1" parent="1">
          <mxGeometry relative="1" as="geometry">
            <mxPoint x="1320" y="455" as="sourcePoint" />
            <Array as="points">
              <mxPoint x="1245" y="455" />
            </Array>
            <mxPoint x="1155" y="455" as="targetPoint" />
          </mxGeometry>
        </mxCell>
        <mxCell id="ysUUQ0esG7nX-n5Ht758-111" value="user data found" style="html=1;verticalAlign=bottom;endArrow=block;edgeStyle=elbowEdgeStyle;elbow=vertical;curved=0;rounded=0;" edge="1" parent="1">
          <mxGeometry relative="1" as="geometry">
            <mxPoint x="1145" y="475" as="sourcePoint" />
            <Array as="points">
              <mxPoint x="1070" y="475" />
            </Array>
            <mxPoint x="980" y="475" as="targetPoint" />
          </mxGeometry>
        </mxCell>
        <mxCell id="ysUUQ0esG7nX-n5Ht758-112" value="return message duplicate data" style="html=1;verticalAlign=bottom;endArrow=block;edgeStyle=elbowEdgeStyle;elbow=vertical;curved=0;rounded=0;" edge="1" parent="1">
          <mxGeometry relative="1" as="geometry">
            <mxPoint x="970" y="495" as="sourcePoint" />
            <Array as="points">
              <mxPoint x="895" y="495" />
            </Array>
            <mxPoint x="805" y="495" as="targetPoint" />
          </mxGeometry>
        </mxCell>
        <mxCell id="ysUUQ0esG7nX-n5Ht758-113" value="" style="shape=loopLimit;whiteSpace=wrap;html=1;rotation=-180;" vertex="1" parent="1">
          <mxGeometry x="790" y="365" width="60" height="37.47" as="geometry" />
        </mxCell>
        <mxCell id="ysUUQ0esG7nX-n5Ht758-114" value="" style="html=1;points=[];perimeter=orthogonalPerimeter;outlineConnect=0;targetShapes=umlLifeline;portConstraint=eastwest;newEdgeStyle={&quot;edgeStyle&quot;:&quot;elbowEdgeStyle&quot;,&quot;elbow&quot;:&quot;vertical&quot;,&quot;curved&quot;:0,&quot;rounded&quot;:0};" vertex="1" parent="1">
          <mxGeometry x="787.5" y="190" width="10" height="310" as="geometry" />
        </mxCell>
        <mxCell id="ysUUQ0esG7nX-n5Ht758-115" value="&lt;font style=&quot;font-size: 9px;&quot;&gt;&amp;nbsp; Alternative&lt;/font&gt;" style="text;strokeColor=none;fillColor=none;html=1;fontSize=12;fontStyle=1;verticalAlign=middle;align=center;fontFamily=Helvetica;fontColor=default;" vertex="1" parent="1">
          <mxGeometry x="770" y="355" width="100" height="40" as="geometry" />
        </mxCell>
        <mxCell id="ysUUQ0esG7nX-n5Ht758-116" value="" style="endArrow=none;dashed=1;html=1;rounded=0;" edge="1" target="ysUUQ0esG7nX-n5Ht758-114" parent="1">
          <mxGeometry width="50" height="50" relative="1" as="geometry">
            <mxPoint x="793" y="715" as="sourcePoint" />
            <mxPoint x="793" y="155" as="targetPoint" />
          </mxGeometry>
        </mxCell>
        <mxCell id="ysUUQ0esG7nX-n5Ht758-117" value="&lt;font style=&quot;font-size: 22px;&quot;&gt;signup sequence diagram&lt;/font&gt;" style="text;strokeColor=none;fillColor=none;html=1;fontSize=12;fontStyle=1;verticalAlign=middle;align=center;fontFamily=Helvetica;fontColor=default;" vertex="1" parent="1">
          <mxGeometry x="990" y="55" width="160" height="40" as="geometry" />
        </mxCell>
        <mxCell id="ysUUQ0esG7nX-n5Ht758-120" value="" style="endArrow=classic;html=1;rounded=0;" edge="1" parent="1">
          <mxGeometry width="50" height="50" relative="1" as="geometry">
            <mxPoint x="980" y="300" as="sourcePoint" />
            <mxPoint x="980" y="340" as="targetPoint" />
            <Array as="points">
              <mxPoint x="1030" y="300" />
              <mxPoint x="1030" y="340" />
            </Array>
          </mxGeometry>
        </mxCell>
        <mxCell id="ysUUQ0esG7nX-n5Ht758-121" value="&lt;font style=&quot;font-size: 10px;&quot;&gt;validate the 2 entered&amp;nbsp;&lt;/font&gt;&lt;div style=&quot;font-size: 10px;&quot;&gt;&lt;font style=&quot;font-size: 10px;&quot;&gt;passwords&lt;/font&gt;&lt;/div&gt;" style="edgeLabel;html=1;align=center;verticalAlign=middle;resizable=0;points=[];" vertex="1" connectable="0" parent="ysUUQ0esG7nX-n5Ht758-120">
          <mxGeometry x="-0.1388" relative="1" as="geometry">
            <mxPoint y="10" as="offset" />
          </mxGeometry>
        </mxCell>
      </root>
    </mxGraphModel>
  </diagram>
</mxfile>
